<?xml version="1.0" standalone="no"?><svg xmlns="http://www.w3.org/2000/svg" viewBox="0 0 1440 320"><path fill="#000000" fill-opacity="1" d="M0,0L12.6,37.3C25.3,75,51,149,76,170.7C101.1,192,126,160,152,160C176.8,160,202,192,227,192C252.6,192,278,160,303,128C328.4,96,354,64,379,58.7C404.2,53,429,75,455,90.7C480,107,505,117,531,133.3C555.8,149,581,171,606,154.7C631.6,139,657,85,682,74.7C707.4,64,733,96,758,101.3C783.2,107,808,85,834,74.7C858.9,64,884,64,909,101.3C934.7,139,960,213,985,240C1010.5,267,1036,245,1061,229.3C1086.3,213,1112,203,1137,192C1162.1,181,1187,171,1213,186.7C1237.9,203,1263,245,1288,261.3C1313.7,277,1339,267,1364,218.7C1389.5,171,1415,85,1427,42.7L1440,0L1440,320L1427.4,320C1414.7,320,1389,320,1364,320C1338.9,320,1314,320,1288,320C1263.2,320,1238,320,1213,320C1187.4,320,1162,320,1137,320C1111.6,320,1086,320,1061,320C1035.8,320,1011,320,985,320C960,320,935,320,909,320C884.2,320,859,320,834,320C808.4,320,783,320,758,320C732.6,320,707,320,682,320C656.8,320,632,320,606,320C581.1,320,556,320,531,320C505.3,320,480,320,455,320C429.5,320,404,320,379,320C353.7,320,328,320,303,320C277.9,320,253,320,227,320C202.1,320,177,320,152,320C126.3,320,101,320,76,320C50.5,320,25,320,13,320L0,320Z"></path></svg>