<svg xmlns="http://www.w3.org/2000/svg" viewBox="0 0 1440 320"><path fill="#ffffff" fill-opacity="1" d="M0,256L7.7,240C15.5,224,31,192,46,170.7C61.9,149,77,139,93,117.3C108.4,96,124,64,139,69.3C154.8,75,170,117,186,122.7C201.3,128,217,96,232,106.7C247.7,117,263,171,279,202.7C294.2,235,310,245,325,256C340.6,267,356,277,372,250.7C387.1,224,403,160,418,149.3C433.5,139,449,181,465,170.7C480,160,495,96,511,69.3C526.5,43,542,53,557,64C572.9,75,588,85,604,122.7C619.4,160,635,224,650,224C665.8,224,681,160,697,117.3C712.3,75,728,53,743,48C758.7,43,774,53,790,74.7C805.2,96,821,128,836,133.3C851.6,139,867,117,883,112C898.1,107,914,117,929,144C944.5,171,960,213,975,202.7C991,192,1006,128,1022,101.3C1037.4,75,1053,85,1068,112C1083.9,139,1099,181,1115,170.7C1130.3,160,1146,96,1161,80C1176.8,64,1192,96,1208,138.7C1223.2,181,1239,235,1254,240C1269.7,245,1285,203,1301,154.7C1316.1,107,1332,53,1347,80C1362.6,107,1378,213,1394,229.3C1409,245,1425,171,1432,133.3L1440,96L1440,320L1432.3,320C1424.5,320,1409,320,1394,320C1378.1,320,1363,320,1347,320C1331.6,320,1316,320,1301,320C1285.2,320,1270,320,1254,320C1238.7,320,1223,320,1208,320C1192.3,320,1177,320,1161,320C1145.8,320,1130,320,1115,320C1099.4,320,1084,320,1068,320C1052.9,320,1037,320,1022,320C1006.5,320,991,320,975,320C960,320,945,320,929,320C913.5,320,898,320,883,320C867.1,320,852,320,836,320C820.6,320,805,320,790,320C774.2,320,759,320,743,320C727.7,320,712,320,697,320C681.3,320,666,320,650,320C634.8,320,619,320,604,320C588.4,320,573,320,557,320C541.9,320,526,320,511,320C495.5,320,480,320,465,320C449,320,434,320,418,320C402.6,320,387,320,372,320C356.1,320,341,320,325,320C309.7,320,294,320,279,320C263.2,320,248,320,232,320C216.8,320,201,320,186,320C170.3,320,155,320,139,320C123.9,320,108,320,93,320C77.4,320,62,320,46,320C31,320,15,320,8,320L0,320Z"></path></svg>